<svg id="visual" viewBox="0 0 960 300" width="960" height="300" xmlns="http://www.w3.org/2000/svg" xmlns:xlink="http://www.w3.org/1999/xlink" version="1.1"><path d="M827 600L647 600L647 565L386 565L386 529L647 529L647 494L881 494L881 459L521 459L521 424L728 424L728 388L719 388L719 353L593 353L593 318L701 318L701 282L746 282L746 247L773 247L773 212L404 212L404 176L899 176L899 141L602 141L602 106L611 106L611 71L485 71L485 35L575 35L575 0L900 0L900 35L900 35L900 71L900 71L900 106L900 106L900 141L900 141L900 176L900 176L900 212L900 212L900 247L900 247L900 282L900 282L900 318L900 318L900 353L900 353L900 388L900 388L900 424L900 424L900 459L900 459L900 494L900 494L900 529L900 529L900 565L900 565L900 600L900 600Z" fill="#b55494"></path><path d="M692 600L530 600L530 565L359 565L359 529L557 529L557 494L836 494L836 459L377 459L377 424L656 424L656 388L602 388L602 353L548 353L548 318L674 318L674 282L629 282L629 247L638 247L638 212L305 212L305 176L818 176L818 141L431 141L431 106L548 106L548 71L422 71L422 35L557 35L557 0L576 0L576 35L486 35L486 71L612 71L612 106L603 106L603 141L900 141L900 176L405 176L405 212L774 212L774 247L747 247L747 282L702 282L702 318L594 318L594 353L720 353L720 388L729 388L729 424L522 424L522 459L882 459L882 494L648 494L648 529L387 529L387 565L648 565L648 600L828 600Z" fill="#da8aca"></path><path d="M548 600L530 600L530 565L350 565L350 529L521 529L521 494L827 494L827 459L224 459L224 424L467 424L467 388L476 388L476 353L377 353L377 318L530 318L530 282L413 282L413 247L485 247L485 212L251 212L251 176L611 176L611 141L314 141L314 106L458 106L458 71L350 71L350 35L386 35L386 0L558 0L558 35L423 35L423 71L549 71L549 106L432 106L432 141L819 141L819 176L306 176L306 212L639 212L639 247L630 247L630 282L675 282L675 318L549 318L549 353L603 353L603 388L657 388L657 424L378 424L378 459L837 459L837 494L558 494L558 529L360 529L360 565L531 565L531 600L693 600Z" fill="#ffc1ff"></path><path d="M314 600L287 600L287 565L323 565L323 529L278 529L278 494L377 494L377 459L116 459L116 424L377 424L377 388L269 388L269 353L233 353L233 318L278 318L278 282L251 282L251 247L251 247L251 212L215 212L215 176L269 176L269 141L305 141L305 106L242 106L242 71L287 71L287 35L377 35L377 0L387 0L387 35L351 35L351 71L459 71L459 106L315 106L315 141L612 141L612 176L252 176L252 212L486 212L486 247L414 247L414 282L531 282L531 318L378 318L378 353L477 353L477 388L468 388L468 424L225 424L225 459L828 459L828 494L522 494L522 529L351 529L351 565L531 565L531 600L549 600Z" fill="#ffc1ff"></path><path d="M89 600L152 600L152 565L206 565L206 529L0 529L0 494L17 494L17 459L71 459L71 424L170 424L170 388L98 388L98 353L80 353L80 318L134 318L134 282L107 282L107 247L98 247L98 212L170 212L170 176L125 176L125 141L125 141L125 106L44 106L44 71L26 71L26 35L62 35L62 0L378 0L378 35L288 35L288 71L243 71L243 106L306 106L306 141L270 141L270 176L216 176L216 212L252 212L252 247L252 247L252 282L279 282L279 318L234 318L234 353L270 353L270 388L378 388L378 424L117 424L117 459L378 459L378 494L279 494L279 529L324 529L324 565L288 565L288 600L315 600Z" fill="#da8aca"></path><path d="M0 600L0 600L0 565L0 565L0 529L0 529L0 494L0 494L0 459L0 459L0 424L0 424L0 388L0 388L0 353L0 353L0 318L0 318L0 282L0 282L0 247L0 247L0 212L0 212L0 176L0 176L0 141L0 141L0 106L0 106L0 71L0 71L0 35L0 35L0 0L63 0L63 35L27 35L27 71L45 71L45 106L126 106L126 141L126 141L126 176L171 176L171 212L99 212L99 247L108 247L108 282L135 282L135 318L81 318L81 353L99 353L99 388L171 388L171 424L72 424L72 459L18 459L18 494L0 494L0 529L207 529L207 565L153 565L153 600L90 600Z" fill="#b55494"></path></svg>